<?xml version="1.0" standalone="no"?>
<svg xmlns:xlink="http://www.w3.org/1999/xlink" id="wave" style="transform:rotate(0deg); transition: 0.3s" viewBox="0 0 1440 220" version="1.1" xmlns="http://www.w3.org/2000/svg"><defs><linearGradient id="sw-gradient-0" x1="0" x2="0" y1="1" y2="0"><stop stop-color="rgba(97, 255, 202, 1)" offset="0%" style="--darkreader-inline-stopcolor: #00926d;" data-darkreader-inline-stopcolor=""/><stop stop-color="rgba(97, 255, 202, 1)" offset="100%" style="--darkreader-inline-stopcolor: #00926d;" data-darkreader-inline-stopcolor=""/></linearGradient></defs><path style="transform:translate(0, 0px); opacity:1" fill="url(#sw-gradient-0)" d="M0,88L26.7,73.3C53.3,59,107,29,160,40.3C213.3,51,267,103,320,102.7C373.3,103,427,51,480,58.7C533.3,66,587,132,640,146.7C693.3,161,747,125,800,121C853.3,117,907,147,960,143C1013.3,139,1067,103,1120,106.3C1173.3,110,1227,154,1280,165C1333.3,176,1387,154,1440,150.3C1493.3,147,1547,161,1600,157.7C1653.3,154,1707,132,1760,106.3C1813.3,81,1867,51,1920,62.3C1973.3,73,2027,125,2080,132C2133.3,139,2187,103,2240,99C2293.3,95,2347,125,2400,113.7C2453.3,103,2507,51,2560,51.3C2613.3,51,2667,103,2720,128.3C2773.3,154,2827,154,2880,135.7C2933.3,117,2987,81,3040,58.7C3093.3,37,3147,29,3200,33C3253.3,37,3307,51,3360,66C3413.3,81,3467,95,3520,88C3573.3,81,3627,51,3680,66C3733.3,81,3787,139,3813,168.7L3840,198L3840,220L3813.3,220C3786.7,220,3733,220,3680,220C3626.7,220,3573,220,3520,220C3466.7,220,3413,220,3360,220C3306.7,220,3253,220,3200,220C3146.7,220,3093,220,3040,220C2986.7,220,2933,220,2880,220C2826.7,220,2773,220,2720,220C2666.7,220,2613,220,2560,220C2506.7,220,2453,220,2400,220C2346.7,220,2293,220,2240,220C2186.7,220,2133,220,2080,220C2026.7,220,1973,220,1920,220C1866.7,220,1813,220,1760,220C1706.7,220,1653,220,1600,220C1546.7,220,1493,220,1440,220C1386.7,220,1333,220,1280,220C1226.7,220,1173,220,1120,220C1066.7,220,1013,220,960,220C906.7,220,853,220,800,220C746.7,220,693,220,640,220C586.7,220,533,220,480,220C426.7,220,373,220,320,220C266.7,220,213,220,160,220C106.7,220,53,220,27,220L0,220Z"/></svg>